# xmcd
#
# Track frame offsets:
#	182
#	13287
#	29350
#	43312
#	60562
#	76762
#	90382
#	102965
#	117862
#	131775
#	147825
#	166600
#	180987
#
# Disc length: 2552
#
# Revision: 3
# Processed by: cddbd v1.5.1PL0 Copyright (c) Steve Scherf et al.
# Submitted via: DiscPlay 4.0.3
# Normalized: r1:TDELIM( - );r2:TSWAP
#
DISCID=a009f60d
DTITLE=Various Artist - La Nueva Musica Country - CD2
DYEAR=1900
DGENRE=
TTITLE0=Suzy Bogguss - Outbound Plane
TTITLE1=David Lynn Jones - Heart Like A Roadsign, Head Like A Wheel
TTITLE2=Jason - Letter Of Love
TTITLE3=Tanya Tucker - Some Kind Of Trouble
TTITLE4=Garth Brooks - Burning Bridges
TTITLE5=Skip Ewing - One Step Out Of Time
TTITLE6=Lee Greenwood and Suzy Bogguss - Hopelessly Yours
TTITLE7=Chris Ledoux - Cadillac Cowboy
TTITLE8=Pirates Of The Mississippi - Too Much
TTITLE9=David Lynn Jones - Every Road Is An Open Door
TTITLE10=Billy Dean - Hammer Down
TTITLE11=Eddie Rabbitt - Hang Up The Phone
TTITLE12=Nitty Gritty Dirt Band - I Fought The Law
EXTD=
EXTT0=
EXTT1=
EXTT2=
EXTT3=
EXTT4=
EXTT5=
EXTT6=
EXTT7=
EXTT8=
EXTT9=
EXTT10=
EXTT11=
EXTT12=
PLAYORDER=
